<svg width="1000" height="1000" viewBox="0 0 1000 1000" fill="none" xmlns="http://www.w3.org/2000/svg">
<rect width="1000" height="1000" rx="500" fill="#1E1E1E"/>
<path d="M60.6369 523V488.091H67.2051V493.636H67.5688C68.2051 491.758 69.3263 490.28 70.9324 489.205C72.5536 488.114 74.3869 487.568 76.4324 487.568C76.8566 487.568 77.3566 487.583 77.9324 487.614C78.5233 487.644 78.9854 487.682 79.3188 487.727V494.227C79.046 494.152 78.5612 494.068 77.8642 493.977C77.1672 493.871 76.4703 493.818 75.7733 493.818C74.1672 493.818 72.7354 494.159 71.4778 494.841C70.2354 495.508 69.2506 496.439 68.5233 497.636C67.796 498.818 67.4324 500.167 67.4324 501.682V523H60.6369ZM140.102 523V476.455H149.784V493.955H150.079C150.503 493.015 151.117 492.061 151.92 491.091C152.738 490.106 153.799 489.288 155.102 488.636C156.42 487.97 158.056 487.636 160.011 487.636C162.556 487.636 164.905 488.303 167.056 489.636C169.208 490.955 170.927 492.947 172.215 495.614C173.503 498.265 174.147 501.591 174.147 505.591C174.147 509.485 173.518 512.773 172.261 515.455C171.018 518.121 169.321 520.144 167.17 521.523C165.034 522.886 162.64 523.568 159.988 523.568C158.109 523.568 156.511 523.258 155.193 522.636C153.89 522.015 152.821 521.235 151.988 520.295C151.155 519.341 150.518 518.379 150.079 517.409H149.647V523H140.102ZM149.579 505.545C149.579 507.621 149.867 509.432 150.443 510.977C151.018 512.523 151.852 513.727 152.943 514.591C154.034 515.439 155.359 515.864 156.92 515.864C158.496 515.864 159.829 515.432 160.92 514.568C162.011 513.689 162.837 512.477 163.397 510.932C163.973 509.371 164.261 507.576 164.261 505.545C164.261 503.53 163.981 501.758 163.42 500.227C162.859 498.697 162.034 497.5 160.943 496.636C159.852 495.773 158.511 495.341 156.92 495.341C155.344 495.341 154.011 495.758 152.92 496.591C151.844 497.424 151.018 498.606 150.443 500.136C149.867 501.667 149.579 503.47 149.579 505.545ZM187.189 523V476.455H196.871V493.955H197.166C197.591 493.015 198.204 492.061 199.007 491.091C199.826 490.106 200.886 489.288 202.189 488.636C203.507 487.97 205.144 487.636 207.098 487.636C209.644 487.636 211.992 488.303 214.144 489.636C216.295 490.955 218.015 492.947 219.303 495.614C220.591 498.265 221.235 501.591 221.235 505.591C221.235 509.485 220.606 512.773 219.348 515.455C218.106 518.121 216.409 520.144 214.257 521.523C212.121 522.886 209.727 523.568 207.076 523.568C205.197 523.568 203.598 523.258 202.28 522.636C200.977 522.015 199.909 521.235 199.076 520.295C198.242 519.341 197.606 518.379 197.166 517.409H196.735V523H187.189ZM196.666 505.545C196.666 507.621 196.954 509.432 197.53 510.977C198.106 512.523 198.939 513.727 200.03 514.591C201.121 515.439 202.447 515.864 204.007 515.864C205.583 515.864 206.916 515.432 208.007 514.568C209.098 513.689 209.924 512.477 210.485 510.932C211.06 509.371 211.348 507.576 211.348 505.545C211.348 503.53 211.068 501.758 210.507 500.227C209.947 498.697 209.121 497.5 208.03 496.636C206.939 495.773 205.598 495.341 204.007 495.341C202.432 495.341 201.098 495.758 200.007 496.591C198.932 497.424 198.106 498.606 197.53 500.136C196.954 501.667 196.666 503.47 196.666 505.545ZM280.915 523L286.734 488.091H293.529L287.711 523H280.915ZM291.552 482.636C290.37 482.636 289.37 482.242 288.552 481.455C287.749 480.652 287.377 479.697 287.438 478.591C287.499 477.47 287.968 476.515 288.847 475.727C289.726 474.924 290.749 474.523 291.915 474.523C293.097 474.523 294.09 474.924 294.893 475.727C295.696 476.515 296.074 477.47 296.029 478.591C295.968 479.697 295.499 480.652 294.62 481.455C293.756 482.242 292.734 482.636 291.552 482.636ZM303.253 523L309.071 488.091H315.866L310.048 523H303.253ZM313.889 482.636C312.707 482.636 311.707 482.242 310.889 481.455C310.086 480.652 309.715 479.697 309.776 478.591C309.836 477.47 310.306 476.515 311.185 475.727C312.063 474.924 313.086 474.523 314.253 474.523C315.435 474.523 316.427 474.924 317.23 475.727C318.033 476.515 318.412 477.47 318.366 478.591C318.306 479.697 317.836 480.652 316.957 481.455C316.094 482.242 315.071 482.636 313.889 482.636ZM354.968 523L362.695 476.455H372.536L369.354 495.659H389.331L392.513 476.455H402.331L394.604 523H384.786L387.968 503.773H367.99L364.809 523H354.968ZM424.754 523.682C421.178 523.682 418.216 522.955 415.868 521.5C413.519 520.03 411.868 517.955 410.913 515.273C409.974 512.576 409.815 509.386 410.436 505.705C411.042 502.114 412.262 498.962 414.095 496.25C415.943 493.538 418.262 491.424 421.049 489.909C423.837 488.394 426.943 487.636 430.368 487.636C432.671 487.636 434.754 488.008 436.618 488.75C438.496 489.477 440.057 490.583 441.299 492.068C442.542 493.538 443.39 495.379 443.845 497.591C444.315 499.803 444.307 502.394 443.822 505.364L443.39 508.023H413.936L414.868 502.023H435.231C435.459 500.629 435.368 499.394 434.959 498.318C434.549 497.242 433.868 496.402 432.913 495.795C431.959 495.174 430.784 494.864 429.39 494.864C427.966 494.864 426.633 495.212 425.39 495.909C424.148 496.606 423.102 497.523 422.254 498.659C421.421 499.78 420.883 501 420.64 502.318L419.572 508.273C419.269 510.106 419.33 511.629 419.754 512.841C420.193 514.053 420.951 514.962 422.027 515.568C423.102 516.159 424.466 516.455 426.118 516.455C427.193 516.455 428.201 516.303 429.14 516C430.095 515.697 430.943 515.25 431.686 514.659C432.428 514.053 433.034 513.303 433.504 512.409L442.345 513C441.527 515.152 440.284 517.03 438.618 518.636C436.951 520.227 434.943 521.47 432.595 522.364C430.262 523.242 427.648 523.682 424.754 523.682ZM471.057 476.455L463.33 523H453.648L461.376 476.455H471.057ZM494.895 476.455L487.168 523H477.486L485.213 476.455H494.895ZM517.141 523.682C513.581 523.682 510.634 522.924 508.301 521.409C505.967 519.879 504.323 517.758 503.369 515.045C502.429 512.318 502.255 509.144 502.846 505.523C503.422 501.947 504.619 498.818 506.437 496.136C508.255 493.455 510.566 491.371 513.369 489.886C516.172 488.386 519.331 487.636 522.846 487.636C526.391 487.636 529.331 488.402 531.664 489.932C533.998 491.447 535.641 493.568 536.596 496.295C537.551 499.023 537.732 502.197 537.141 505.818C536.551 509.379 535.338 512.5 533.505 515.182C531.672 517.864 529.361 519.955 526.573 521.455C523.785 522.939 520.641 523.682 517.141 523.682ZM518.096 516.182C519.732 516.182 521.179 515.72 522.437 514.795C523.71 513.856 524.763 512.583 525.596 510.977C526.445 509.356 527.035 507.523 527.369 505.477C527.702 503.462 527.725 501.674 527.437 500.114C527.149 498.538 526.543 497.295 525.619 496.386C524.71 495.477 523.46 495.023 521.869 495.023C520.232 495.023 518.778 495.492 517.505 496.432C516.232 497.356 515.179 498.629 514.346 500.25C513.513 501.871 512.929 503.712 512.596 505.773C512.278 507.773 512.255 509.561 512.528 511.136C512.801 512.697 513.399 513.932 514.323 514.841C515.248 515.735 516.505 516.182 518.096 516.182ZM578.845 523L573.254 476.455H584.004L586.368 508.795H586.754L600.595 476.455H609.799L612.936 508.864H613.345L626.39 476.455H637.14L616.095 523H606.504L602.731 492.568H602.368L588.436 523H578.845ZM652.966 523.682C649.406 523.682 646.459 522.924 644.126 521.409C641.792 519.879 640.148 517.758 639.194 515.045C638.254 512.318 638.08 509.144 638.671 505.523C639.247 501.947 640.444 498.818 642.262 496.136C644.08 493.455 646.391 491.371 649.194 489.886C651.997 488.386 655.156 487.636 658.671 487.636C662.216 487.636 665.156 488.402 667.489 489.932C669.823 491.447 671.466 493.568 672.421 496.295C673.376 499.023 673.557 502.197 672.966 505.818C672.376 509.379 671.163 512.5 669.33 515.182C667.497 517.864 665.186 519.955 662.398 521.455C659.61 522.939 656.466 523.682 652.966 523.682ZM653.921 516.182C655.557 516.182 657.004 515.72 658.262 514.795C659.535 513.856 660.588 512.583 661.421 510.977C662.269 509.356 662.86 507.523 663.194 505.477C663.527 503.462 663.55 501.674 663.262 500.114C662.974 498.538 662.368 497.295 661.444 496.386C660.535 495.477 659.285 495.023 657.694 495.023C656.057 495.023 654.603 495.492 653.33 496.432C652.057 497.356 651.004 498.629 650.171 500.25C649.338 501.871 648.754 503.712 648.421 505.773C648.103 507.773 648.08 509.561 648.353 511.136C648.626 512.697 649.224 513.932 650.148 514.841C651.073 515.735 652.33 516.182 653.921 516.182ZM682.798 523L688.616 488.091H698.003L696.98 494.182H697.344C698.344 492.015 699.685 490.379 701.366 489.273C703.063 488.152 704.889 487.591 706.844 487.591C707.329 487.591 707.836 487.621 708.366 487.682C708.912 487.727 709.397 487.803 709.821 487.909L708.366 496.523C707.942 496.371 707.336 496.25 706.548 496.159C705.776 496.053 705.041 496 704.344 496C702.935 496 701.624 496.311 700.412 496.932C699.2 497.538 698.177 498.386 697.344 499.477C696.526 500.568 695.988 501.826 695.73 503.25L692.48 523H682.798ZM732.795 476.455L725.068 523H715.386L723.113 476.455H732.795ZM752.042 523.568C749.375 523.568 747.079 522.886 745.155 521.523C743.246 520.144 741.882 518.121 741.064 515.455C740.261 512.773 740.185 509.485 740.837 505.591C741.504 501.591 742.701 498.265 744.428 495.614C746.155 492.947 748.201 490.955 750.564 489.636C752.928 488.303 755.39 487.636 757.951 487.636C759.89 487.636 761.458 487.97 762.655 488.636C763.867 489.288 764.799 490.106 765.451 491.091C766.102 492.061 766.557 493.015 766.814 493.955H767.11L770.042 476.455H779.701L771.973 523H762.428L763.36 517.409H762.951C762.345 518.379 761.542 519.341 760.542 520.295C759.557 521.235 758.36 522.015 756.951 522.636C755.557 523.258 753.92 523.568 752.042 523.568ZM756.314 515.864C757.86 515.864 759.254 515.439 760.496 514.591C761.738 513.727 762.784 512.523 763.632 510.977C764.481 509.432 765.072 507.621 765.405 505.545C765.754 503.47 765.761 501.667 765.428 500.136C765.095 498.606 764.443 497.424 763.473 496.591C762.519 495.758 761.254 495.341 759.678 495.341C758.087 495.341 756.678 495.773 755.451 496.636C754.238 497.5 753.231 498.697 752.428 500.227C751.64 501.758 751.079 503.53 750.746 505.545C750.413 507.576 750.39 509.371 750.678 510.932C750.966 512.477 751.579 513.689 752.519 514.568C753.458 515.432 754.723 515.864 756.314 515.864Z" fill="#E84118"/>
<path d="M105.281 520.045V489.318H111.395V520.045H105.281ZM92.9858 507.727V501.614H123.713V507.727H92.9858ZM248.481 520.045V489.318H254.595V520.045H248.481ZM236.186 507.727V501.614H266.913V507.727H236.186Z" fill="#333333"/>
<path d="M346.227 474.273L331.227 530H325.159L340.159 474.273H346.227ZM807.652 474.273L792.652 530H786.583L801.583 474.273H807.652ZM834.87 523.705C831.43 523.705 828.468 522.97 825.983 521.5C823.514 520.015 821.605 517.932 820.256 515.25C818.923 512.553 818.256 509.394 818.256 505.773C818.256 502.197 818.923 499.045 820.256 496.318C821.605 493.591 823.483 491.462 825.893 489.932C828.317 488.402 831.15 487.636 834.393 487.636C836.362 487.636 838.271 487.962 840.12 488.614C841.968 489.265 843.627 490.288 845.097 491.682C846.567 493.076 847.726 494.886 848.574 497.114C849.423 499.326 849.847 502.015 849.847 505.182V507.591H822.097V502.5H843.188C843.188 500.712 842.824 499.129 842.097 497.75C841.37 496.356 840.347 495.258 839.029 494.455C837.726 493.652 836.196 493.25 834.438 493.25C832.529 493.25 830.862 493.72 829.438 494.659C828.029 495.583 826.938 496.795 826.165 498.295C825.408 499.78 825.029 501.394 825.029 503.136V507.114C825.029 509.447 825.438 511.432 826.256 513.068C827.09 514.705 828.249 515.955 829.733 516.818C831.218 517.667 832.953 518.091 834.938 518.091C836.226 518.091 837.4 517.909 838.461 517.545C839.521 517.167 840.438 516.606 841.211 515.864C841.983 515.121 842.574 514.205 842.983 513.114L849.415 514.273C848.9 516.167 847.976 517.826 846.643 519.25C845.324 520.659 843.665 521.758 841.665 522.545C839.68 523.318 837.415 523.705 834.87 523.705ZM870.582 502.273V523H863.787V488.091H870.31V493.773H870.741C871.545 491.924 872.802 490.439 874.514 489.318C876.241 488.197 878.416 487.636 881.037 487.636C883.416 487.636 885.499 488.136 887.287 489.136C889.075 490.121 890.461 491.591 891.446 493.545C892.431 495.5 892.923 497.917 892.923 500.795V523H886.128V501.614C886.128 499.083 885.469 497.106 884.151 495.682C882.832 494.242 881.022 493.523 878.719 493.523C877.143 493.523 875.741 493.864 874.514 494.545C873.302 495.227 872.34 496.227 871.628 497.545C870.931 498.848 870.582 500.424 870.582 502.273ZM921.505 523.682C918.687 523.682 916.172 522.962 913.96 521.523C911.763 520.068 910.035 518 908.778 515.318C907.535 512.621 906.914 509.386 906.914 505.614C906.914 501.841 907.543 498.614 908.801 495.932C910.073 493.25 911.816 491.197 914.028 489.773C916.24 488.348 918.748 487.636 921.551 487.636C923.717 487.636 925.46 488 926.778 488.727C928.111 489.439 929.142 490.273 929.869 491.227C930.611 492.182 931.187 493.023 931.596 493.75H932.005V476.455H938.801V523H932.164V517.568H931.596C931.187 518.311 930.596 519.159 929.823 520.114C929.066 521.068 928.02 521.902 926.687 522.614C925.354 523.326 923.626 523.682 921.505 523.682ZM923.005 517.886C924.96 517.886 926.611 517.371 927.96 516.341C929.323 515.295 930.354 513.848 931.051 512C931.763 510.152 932.119 508 932.119 505.545C932.119 503.121 931.77 501 931.073 499.182C930.376 497.364 929.354 495.947 928.005 494.932C926.657 493.917 924.99 493.409 923.005 493.409C920.96 493.409 919.255 493.939 917.892 495C916.528 496.061 915.498 497.508 914.801 499.341C914.119 501.174 913.778 503.242 913.778 505.545C913.778 507.879 914.126 509.977 914.823 511.841C915.52 513.705 916.551 515.182 917.914 516.273C919.293 517.348 920.99 517.886 923.005 517.886Z" fill="#696969"/>
</svg>
